<svg
  version="1.0"
  width="674.000000pt"
  height="980.000000pt"
  viewBox="0 0 674.000000 980.000000"
  preserveAspectRatio="xMidYMid meet"
  fill='#000000'
>
  <g
    transform="translate(0.000000,980.000000) scale(0.100000,-0.100000)"
    fill="fill"
    stroke="none"
  >
    <path
      d="M3095 9790 c-373 -34 -758 -133 -1089 -281 -621 -278 -1163 -760 -1518 -1351 -247 -413 -402 -866 -465 -1363 -21 -169 -24 -605 -4 -760 67 -541 215 -977 479 -1415 41 -69 628 -1095 1303 -2280 803 -1408 1244 -2173 1274 -2207 60 -69 163 -121 256 -130 150 -13 297 59 378 185 16 26 583 1017 1259 2202 676 1185 1255 2197 1286 2249 248 406 408 890 468 1406 16 143 16 558 -1 705 -88 781 -412 1470 -951 2024 -278 285 -555 491 -889 660 -359 182 -697 287 -1101 341 -138 19 -544 27 -685 15z m513 -2056 c489 -100 862 -473 962 -963 24 -121 27 -328 5 -452 -88 -505 -500 -912 -1005 -994 -626 -101 -1221 287 -1387 904 -35 130 -44 381 -18 516 99 535 523 937 1058 1005 95 12 288 4 385 -16z"
    />
  </g>
</svg>
